<svg preserveAspectRatio="none" overflow="visible" style="display: block;" width="16" height="16" viewBox="0 0 16 16" fill="none" xmlns="http://www.w3.org/2000/svg">
<g id="Icon/HeartHalf">
<g id="Vector">
</g>
<path id="Vector_2" d="M8 14C8 14 1.5 10.5 1.5 6.375C1.5 5.47989 1.85558 4.62145 2.48851 3.98851C3.12145 3.35558 3.97989 3 4.875 3C6.28688 3 7.49625 3.76937 8 5V14Z" stroke="#290B12" stroke-width="1.5" stroke-linecap="round" stroke-linejoin="round"/>
<path id="Vector_3" d="M8 5C8.4275 3.95563 9.36312 3.27062 10.5 3.0575" stroke="#290B12" stroke-width="1.5" stroke-linecap="round" stroke-linejoin="round"/>
<path id="Vector_4" d="M13 3.56813C13.4088 3.84125 13.7531 4.20041 14.0086 4.62047C14.2641 5.04053 14.4248 5.51135 14.4794 6" stroke="#290B12" stroke-width="1.5" stroke-linecap="round" stroke-linejoin="round"/>
<path id="Vector_5" d="M13.9563 8.5C13.5938 9.22812 13.0781 9.91438 12.5 10.5394" stroke="#290B12" stroke-width="1.5" stroke-linecap="round" stroke-linejoin="round"/>
<path id="Vector_6" d="M10.5 12.3431C9.70823 12.9557 8.87266 13.5095 8 14" stroke="#290B12" stroke-width="1.5" stroke-linecap="round" stroke-linejoin="round"/>
</g>
</svg>
