<svg preserveAspectRatio="none" overflow="visible" style="display: block;" width="128" height="64" viewBox="0 0 128 64" fill="none" xmlns="http://www.w3.org/2000/svg">
<g id="Logos">
<g id="Vector">
<path d="M40.4284 25.2317C40.5665 25.2044 41.0805 25.2076 41.2312 25.2124C42.6366 25.2577 43.8104 25.7461 44.7705 26.7787C44.7303 26.4407 44.7408 25.8724 44.7377 25.5157C46.3014 25.5464 47.9446 25.5226 49.5126 25.5164L49.5117 39.4673C47.9485 39.4397 46.3096 39.4565 44.7426 39.4692C44.7405 39.2863 44.7682 38.2735 44.7206 38.1986L44.5337 38.4199C43.7948 39.2272 42.6684 39.6545 41.6004 39.7777C39.9559 39.9535 38.3085 39.4716 37.0177 38.4369C32.3447 34.7169 33.9534 25.9464 40.4284 25.2317ZM42.4508 35.3126C43.9906 35.0653 45.0424 33.6211 44.8059 32.0788C44.5694 30.5365 43.1332 29.4743 41.5901 29.7003C40.032 29.9285 38.9575 31.3826 39.1964 32.9399C39.4352 34.4973 40.8959 35.5623 42.4508 35.3126Z" fill="#290B12"/>
<path d="M72.1432 25.1179C76.2337 24.6934 79.891 27.6726 80.3051 31.7661C80.7192 35.8596 77.7326 39.5115 73.6403 39.9155C69.5622 40.3181 65.9281 37.3426 65.5153 33.2636C65.1026 29.1846 68.0674 25.5409 72.1432 25.1179ZM73.3601 35.2564C74.8745 35.0224 75.9117 33.6035 75.6755 32.0887C75.4398 30.574 74.0201 29.5382 72.5066 29.7764C70.9957 30.0142 69.963 31.4311 70.1987 32.9429C70.434 34.4547 71.8488 35.4899 73.3601 35.2564Z" fill="#290B12"/>
<path d="M87.8523 25.1168C91.9482 24.6998 95.6028 27.6933 96.0022 31.793C96.4021 35.8928 93.395 39.5366 89.2956 39.9195C85.2207 40.3001 81.6047 37.3129 81.2071 33.2373C80.8099 29.1616 83.7805 25.5314 87.8523 25.1168ZM89.0608 35.2564C90.5752 35.0204 91.611 33.599 91.3722 32.084C91.1334 30.569 89.7106 29.5356 88.197 29.7775C86.687 30.0188 85.6579 31.4374 85.8958 32.9483C86.1342 34.4592 87.5499 35.4919 89.0608 35.2564Z" fill="#290B12"/>
<path d="M99.6008 33.1874C101.416 32.9921 103.043 34.3111 103.23 36.1282C103.416 37.9452 102.089 39.5672 100.272 39.7443C98.468 39.9202 96.8611 38.6044 96.676 36.8002C96.4915 34.996 97.7982 33.3814 99.6008 33.1874Z" fill="#290B12"/>
<path d="M51.1076 19.3842H56.0797L56.0793 26.8156C56.1397 26.7294 56.2076 26.6487 56.2823 26.5745C58.8215 24.01 63.5419 25.1559 64.2566 28.8034C64.5755 30.4302 64.4968 31.9837 64.4968 33.6268L64.4959 39.468C62.9775 39.4539 61.056 39.4167 59.5539 39.4787C59.4986 37.5952 59.5904 35.671 59.5532 33.7831C59.527 32.4552 59.9063 29.7476 57.8901 29.7409C57.435 29.7359 56.9975 29.9165 56.6783 30.2411C55.8604 31.0644 56.0768 33.0086 56.077 34.1428L56.0808 39.4672C54.4834 39.4295 52.7049 39.4578 51.1037 39.468C51.0666 36.4438 51.0986 33.3532 51.0987 30.3247L51.1076 19.3842Z" fill="#290B12"/>
<path d="M30.2297 25.5209L35.511 25.5174C34.8165 27.3788 33.9063 29.3707 33.1528 31.2277C31.342 35.6902 29.3763 40.1502 27.5851 44.6156H22.2514C22.2887 44.4491 22.8168 43.2374 22.9214 43.0028C23.4233 41.8781 23.8934 40.674 24.42 39.5665C22.3934 34.9392 20.5 30.193 18.456 25.5807V25.5204C20.1787 25.5212 22.1934 25.4699 23.8845 25.5247C24.885 27.9381 25.7756 30.414 26.7545 32.8376C26.8488 33.0713 26.9597 33.3386 27.0371 33.5751C27.6369 32.0155 28.2479 30.4603 28.8702 28.9096C29.3073 27.808 29.762 26.6007 30.2297 25.5209Z" fill="#290B12"/>
<path d="M103.649 19.3842H109.544V19.4433C109.101 20.3704 108.577 21.7574 108.173 22.731L105.518 29.1322C105.159 30.0005 104.705 31.187 104.308 32.0106C102.526 31.8998 100.249 32.034 98.391 31.9807C100.141 27.8519 101.838 23.4686 103.649 19.3842Z" fill="#290B12"/>
</g>
</g>
</svg>
